<?xml version="1.0" encoding="UTF-8" standalone="no"?>
<!-- Created with Inkscape (http://www.inkscape.org/) -->

<svg
   xmlns:dc="http://purl.org/dc/elements/1.1/"
   xmlns:cc="http://creativecommons.org/ns#"
   xmlns:rdf="http://www.w3.org/1999/02/22-rdf-syntax-ns#"
   xmlns:svg="http://www.w3.org/2000/svg"
   xmlns="http://www.w3.org/2000/svg"
   version="1.1"
   width="500"
   height="105.68968"
   id="svg2"
   xml:space="preserve"><metadata
     id="metadata8"><rdf:RDF><cc:Work
         rdf:about=""><dc:format>image/svg+xml</dc:format><dc:type
           rdf:resource="http://purl.org/dc/dcmitype/StillImage" /><dc:title></dc:title></cc:Work></rdf:RDF></metadata><defs
     id="defs6" /><g
     transform="matrix(1.25,0,0,-1.25,-5.588415,206.15764)"
     id="g10"><path
       d="m 55.136769,144.33449 c 0,-1.46042 -0.303096,-2.81282 -0.909814,-4.05406 -0.1741,-0.21912 -0.954388,-1.31306 -2.340872,-3.28528 -0.78291,-1.23966 -1.6062,-2.48088 -2.47249,-3.72212 -1.301008,-1.97064 -2.255396,-2.95806 -2.86159,-2.95806 -0.520402,0 -1.823192,0.67592 -3.902288,2.02622 -2.081194,1.35188 -3.12179,2.24492 -3.12179,2.6833 0,0.87678 1.040596,2.44574 3.12179,4.709 2.079096,2.2638 3.121736,4.1259 3.121736,5.58632 0,1.75146 -0.911544,2.62772 -2.73049,2.62772 l -18.343374,0 c -1.907045,0 -2.861591,-0.87626 -2.861591,-2.62772 l 0,-8.21402 32.911677,-20.58854 c 0.260096,-0.14526 0.389096,-0.36445 0.389096,-0.65548 l 0,-19.492578 c 0,-2.118004 -0.78029,-3.98011 -2.341394,-5.585786 -1.561104,-1.604106 -3.59888,-2.409042 -6.11437,-2.409042 l -25.756555,0 c -2.42734,0 -4.442984,0.804936 -6.04688,2.409042 -1.60594,1.605676 -2.406838,3.467782 -2.406838,5.585786 l 0,20.805648 c 0,0.58574 0.303149,0.87677 0.909499,0.87677 l 8.758913,0 c 0.1741,0 5.657683,-3.4683 16.477289,-10.40387 0.348192,-0.2192 0.520298,-0.84007 0.520298,-1.8621 0,-0.51023 0,-1.25958 0,-2.24491 0,-0.98532 0,-1.7331 0,-2.24491 0,-3.210304 1.126596,-4.818078 3.381886,-4.818078 2.169238,0 3.252834,1.13268 3.252834,3.414818 l 0,10.87687 -32.911518,20.8607 c -0.260149,0.21914 -0.389201,0.4751 -0.389201,0.76614 l 0,16.53658 c 0,2.1159 0.800898,3.978 2.406838,5.58422 1.603896,1.60566 3.61954,2.40904 6.04688,2.40904 l 25.756555,0 c 2.51549,0 4.553266,-0.80338 6.11437,-2.40904 1.561104,-1.60622 2.341394,-3.46832 2.341394,-5.58422 l 0,-4.59836 z m 46.178711,-25.07835 0,-22.886948 c 0,-2.118004 -0.78029,-3.98011 -2.340875,-5.585786 -1.561104,-1.604106 -3.599404,-2.409042 -6.114894,-2.409042 l -25.754296,0 c -2.429492,0 -4.446814,0.804936 -6.05092,2.409042 -1.604104,1.605676 -2.404846,3.467782 -2.404846,5.585786 l 0,52.563658 c 0,2.1159 0.800742,3.978 2.404846,5.58422 1.604106,1.60566 3.621428,2.40904 6.05092,2.40904 l 25.754296,0 c 2.51549,0 4.55379,-0.80338 6.114894,-2.40904 1.560585,-1.60622 2.340875,-3.46832 2.340875,-5.58422 l 0,-4.59836 c 0,-1.82748 -1.08339,-4.27324 -3.252787,-7.33934 -0.78029,-1.23966 -1.603578,-2.48088 -2.470394,-3.72212 -1.300482,-1.97064 -2.25487,-2.95806 -2.861588,-2.95806 -0.520192,0 -1.820678,0.67592 -3.901976,2.02622 -2.081296,1.35188 -3.121684,2.24492 -3.121684,2.6833 0,0.87678 1.040388,2.44574 3.121684,4.709 2.081298,2.2638 3.121686,4.1259 3.121686,5.58632 0,1.75146 -0.911388,2.62772 -2.73259,2.62772 l -18.341538,0 c -1.906678,0 -2.86159,-0.87626 -2.86159,-2.62772 l 0,-45.445604 c 0,-2.263784 1.083912,-3.396464 3.25121,-3.396464 1.648678,0 2.68959,0.76823 3.121686,2.300492 0.0881,0.438388 0.13108,1.788166 0.13108,4.051426 0,1.53227 0.043,2.40904 0.13108,2.62824 l 10.276444,14.34517 c 0.17252,0.21868 0.43262,0.32932 0.780814,0.32932 l 14.699133,0 c 0.6062,0 0.90929,-0.29261 0.90929,-0.87625 z m 46.17923,-22.886948 c 0,-2.118004 -0.78029,-3.98011 -2.3414,-5.585786 -1.5611,-1.604106 -3.59887,-2.409042 -6.11437,-2.409042 l -25.75639,0 c -2.4274,0 -4.44315,0.804936 -6.04882,2.409042 -1.60411,1.605676 -2.40485,3.467782 -2.40485,5.585786 l 0,52.563658 c 0,2.1159 0.80074,3.978 2.40485,5.58422 1.60567,1.60566 3.62142,2.40904 6.04882,2.40904 l 25.75639,0 c 2.5155,0 4.55327,-0.80338 6.11437,-2.40904 1.56111,-1.60622 2.3414,-3.46832 2.3414,-5.58422 l 0,-52.563658 z m -9.36558,48.950618 c 0,1.75146 -0.91139,2.62772 -2.73049,2.62772 l -18.34312,0 c -1.9072,0 -2.86158,-0.87626 -2.86158,-2.62772 l 0,-45.445604 c 0,-2.263784 1.08338,-3.396464 3.25068,-3.396464 2.1694,0 3.25278,1.13268 3.25278,3.396464 l 0,26.938364 17.43173,16.20464 0,2.3026 z m 55.54428,-0.98532 c 0,-1.53436 -0.28264,-2.86578 -0.84583,-3.99846 -0.5632,-1.13058 -3.10124,-4.2895 -7.60993,-9.47414 -3.81388,-4.52494 -5.72318,-7.55433 -5.72318,-9.08659 0,-1.16939 0.99791,-1.75356 2.99269,-1.75356 l 10.27487,0 c 0.60829,0 0.91138,-0.29051 0.91138,-0.87625 l 0,-29.894348 c 0,-0.583646 -0.30309,-0.876778 -0.91138,-0.876778 l -7.54438,0 c -0.2601,0 -0.5181,0.18406 -0.78029,0.546938 -0.95439,1.460422 -6.46047,12.812908 -16.52034,34.056418 0,0.29313 0.086,0.51233 0.2601,0.65758 l 14.69966,18.06887 c 0.95439,1.1699 1.43158,2.37442 1.43158,3.61564 0,1.75146 -0.91139,2.62772 -2.73259,2.62772 l -21.20313,0 0,-20.36882 c 1.9953,-3.14057 3.9455,-6.2418 5.8548,-9.3079 2.34087,-3.79605 3.51078,-7.15528 3.51078,-10.07613 l 0,-18.943538 c 0,-0.583646 -0.30309,-0.876778 -0.90981,-0.876778 l -16.91153,0 c -0.60829,0 -0.90929,0.293132 -0.90929,0.876778 l 0,66.800288 c 0,0.58156 0.301,0.87468 0.90929,0.87468 l 33.30077,0 c 2.51549,0 4.55379,-0.80338 6.1149,-2.40904 1.56058,-1.60622 2.34086,-3.46832 2.34086,-5.58422 l 0,-4.59836 z m 46.17924,0 c 0,-2.19194 -1.08392,-4.6377 -3.2528,-7.33934 l -21.5922,-26.60852 c 0.52018,-0.80337 0.99528,-1.5716 1.43,-2.3005 0.60828,-0.94862 0.9114,-1.78816 0.9114,-2.51968 l 0,-16.315308 c 0,-0.583646 -0.30312,-0.876778 -0.9114,-0.876778 l -18.34154,0 c -0.6062,0 -0.9093,0.293132 -0.9093,0.876778 l 0,66.800288 c 0,0.58156 0.3031,0.87468 0.9093,0.87468 l 33.30078,0 c 2.51548,0 4.55326,-0.80338 6.11436,-2.40904 1.56112,-1.60622 2.3414,-3.46832 2.3414,-5.58422 l 0,-4.59836 z m -9.36506,0.98532 c 0,1.75146 -0.91192,2.62772 -2.73258,2.62772 l -21.20314,0 0,-20.44276 4.20508,-8.34093 18.29854,22.54033 c 0.95438,1.1699 1.4321,2.37442 1.4321,3.61564 z m 28.72444,-56.068668 c 0,-0.583646 -0.301,-0.876778 -0.90772,-0.876778 l -24.9761,0 c -0.6083,0 -0.91138,0.293132 -0.91138,0.876778 l 0,28.142888 c 0,0.87678 0.086,1.46042 0.26008,1.75146 l 17.16954,26.06368 0,10.84226 c 0,0.58156 0.30572,0.87468 0.9119,0.87468 l 7.54596,0 c 0.60672,0 0.90772,-0.29312 0.90772,-0.87468 l 0,-66.800288 z m 44.90076,7.11805 c 0,-2.118004 -0.7787,-3.98011 -2.3414,-5.585786 -1.5611,-1.604106 -3.59886,-2.409042 -6.11436,-2.409042 l -25.7543,0 c -2.42738,0 -4.44524,0.804936 -6.04934,2.409042 -1.60358,1.605676 -2.40642,3.467782 -2.40642,5.585786 l 0,52.563658 c 0,2.1159 0.80284,3.978 2.40642,5.58422 1.6041,1.60566 3.62196,2.40904 6.04934,2.40904 l 25.7543,0 c 2.5155,0 4.55326,-0.80338 6.11436,-2.40904 1.5627,-1.60622 2.3414,-3.46832 2.3414,-5.58422 l 0,-52.563658 z m -9.36558,48.950618 c 0,1.75146 -0.91138,2.62772 -2.73048,2.62772 l -18.3431,0 c -1.90722,0 -2.8616,-0.87626 -2.8616,-2.62772 l 0,-45.445604 c 0,-2.263784 1.08338,-3.396464 3.25068,-3.396464 2.17148,0 3.25278,1.13268 3.25278,3.396464 l 0,26.938364 17.43172,16.20464 0,2.3026 z m 55.5443,10.73162 0,-66.800288 c 0,-0.583646 -0.3031,-0.876778 -0.9093,-0.876778 l -7.47882,0 c -0.3482,0 -0.6104,0.18406 -0.7803,0.565292 l -24.13236,48.821614 0,-10.18256 c 1.9953,-3.14057 3.9476,-6.2418 5.85428,-9.3079 2.3414,-3.79605 3.51338,-7.15528 3.51338,-10.07613 l 0,-18.943538 c 0,-0.583646 -0.30518,-0.876778 -0.9119,-0.876778 l -16.91152,0 c -0.60618,0 -0.9093,0.293132 -0.9093,0.876778 l 0,66.800288 c 0,0.58156 0.30312,0.87468 0.9093,0.87468 l 9.36558,0 c 0.34818,0 0.6083,-0.1826 0.7803,-0.54694 l 22.2456,-45.00774 0,44.68 c 0,0.58156 0.3031,0.87468 0.90928,0.87468 l 7.54648,0 c 0.6062,0 0.9093,-0.29312 0.9093,-0.87468 z m 46.17922,-11.71694 c 0,-1.46042 -0.3031,-2.81282 -0.90982,-4.05406 -0.1742,-0.21912 -0.95438,-1.31306 -2.34086,-3.28528 -0.7829,-1.23966 -1.6041,-2.48088 -2.47248,-3.72212 -1.30102,-1.97064 -2.25542,-2.95806 -2.8616,-2.95806 -0.5202,0 -1.8212,0.67592 -3.9025,2.02622 -2.08078,1.35188 -3.12168,2.24492 -3.12168,2.6833 0,0.87678 1.0409,2.44574 3.12168,4.709 2.0813,2.2638 3.12168,4.1259 3.12168,5.58632 0,1.75146 -0.9093,2.62772 -2.73048,2.62772 l -18.3431,0 c -1.90722,0 -2.8616,-0.87626 -2.8616,-2.62772 l 0,-8.21402 32.91168,-20.58854 c 0.26008,-0.14526 0.38908,-0.36445 0.38908,-0.65548 l 0,-19.492578 c 0,-2.118004 -0.78028,-3.98011 -2.3414,-5.585786 -1.5611,-1.604106 -3.59886,-2.409042 -6.11436,-2.409042 l -25.7543,0 c -2.42948,0 -4.44524,0.804936 -6.04934,2.409042 -1.60358,1.605676 -2.40642,3.467782 -2.40642,5.585786 l 0,20.805648 c 0,0.58574 0.30308,0.87677 0.9093,0.87677 l 8.75884,0 c 0.1742,0 5.65974,-3.4683 16.47736,-10.40387 0.34818,-0.2192 0.52228,-0.84007 0.52228,-1.8621 0,-0.51023 0,-1.25958 0,-2.24491 0,-0.98532 0,-1.7331 0,-2.24491 0,-3.210304 1.1248,-4.818078 3.37968,-4.818078 2.16938,0 3.25278,1.13268 3.25278,3.414818 l 0,10.87687 -32.91114,20.8607 c -0.2601,0.21914 -0.3891,0.4751 -0.3891,0.76614 l 0,16.53658 c 0,2.1159 0.80284,3.978 2.40642,5.58422 1.6041,1.60566 3.61986,2.40904 6.04934,2.40904 l 25.7543,0 c 2.5155,0 4.55326,-0.80338 6.11436,-2.40904 1.56112,-1.60622 2.3414,-3.46832 2.3414,-5.58422 l 0,-4.59836"
       id="path16"
       style="fill:#000000;fill-opacity:1;fill-rule:evenodd;stroke:none" /></g></svg>